<svg width="37" height="36" viewBox="0 0 37 36" fill="none" xmlns="http://www.w3.org/2000/svg">
<path d="M20.6579 11.0526V8.52632H15.6053V11.0526H20.6579ZM8.02632 13.5789V27.4737H28.2368V13.5789H8.02632ZM28.2368 11.0526C29.6389 11.0526 30.7632 12.1768 30.7632 13.5789V27.4737C30.7632 28.8758 29.6389 30 28.2368 30H8.02632C6.62421 30 5.5 28.8758 5.5 27.4737L5.51263 13.5789C5.51263 12.1768 6.62421 11.0526 8.02632 11.0526H13.0789V8.52632C13.0789 7.12421 14.2032 6 15.6053 6H20.6579C22.06 6 23.1842 7.12421 23.1842 8.52632V11.0526H28.2368Z" fill="#558CEC"/>
</svg>
