<svg width="37" height="36" viewBox="0 0 37 36" fill="none" xmlns="http://www.w3.org/2000/svg">
<path d="M29.4348 25.935L27.4998 24V16.5C27.4998 11.895 25.0398 8.04 20.7498 7.02V6C20.7498 4.755 19.7448 3.75 18.4998 3.75C17.2548 3.75 16.2498 4.755 16.2498 6V7.02C11.9448 8.04 9.49983 11.88 9.49983 16.5V24L7.56483 25.935C6.61983 26.88 7.27983 28.5 8.61483 28.5H28.3698C29.7198 28.5 30.3798 26.88 29.4348 25.935ZM24.4998 25.5H12.4998V16.5C12.4998 12.78 14.7648 9.75 18.4998 9.75C22.2348 9.75 24.4998 12.78 24.4998 16.5V25.5ZM18.4998 33C20.1498 33 21.4998 31.65 21.4998 30H15.4998C15.4998 31.65 16.8348 33 18.4998 33Z" fill="#558CEC"/>
</svg>
