<svg width="37" height="38" viewBox="0 0 37 38" fill="none" xmlns="http://www.w3.org/2000/svg">
<path d="M25.7448 6.27467C24.6862 5.67185 23.5615 5.20136 22.3852 4.8779V3.67961C22.3852 2.20197 21.1796 0.996338 19.702 0.996338H17.3127C15.8351 0.996338 14.6295 2.20197 14.6295 3.67961V4.8779C13.4532 5.20136 12.3285 5.6645 11.2699 6.27467L10.4171 5.42925C9.90984 4.922 9.23351 4.64265 8.52042 4.64265C7.80733 4.64265 7.131 4.922 6.62375 5.42925L4.93292 7.12008C4.42567 7.62733 4.14631 8.30366 4.14631 9.01675C4.14631 9.72984 4.42567 10.4062 4.93292 10.9134L5.77833 11.7588C5.17552 12.8174 4.70502 13.9422 4.38156 15.1184H3.18328C1.70564 15.1184 0.5 16.3241 0.5 17.8017V20.1909C0.5 21.6686 1.70564 22.8742 3.18328 22.8742H4.38156C4.70502 24.0504 5.16816 25.1752 5.77833 26.2338L4.93292 27.0866C3.88901 28.1305 3.88901 29.836 4.93292 30.8799L6.62375 32.5708C7.131 33.078 7.80733 33.3574 8.52042 33.3574C9.23351 33.3574 9.90984 33.078 10.4171 32.5708L11.2625 31.7253C12.3211 32.3282 13.4459 32.7986 14.6221 33.1221V34.3204C14.6221 35.798 15.8278 37.0037 17.3054 37.0037H19.6946C21.1722 37.0037 22.3779 35.798 22.3779 34.3204V33.1221C23.5541 32.7986 24.6789 32.3355 25.7375 31.7253L26.5829 32.5708C27.0902 33.078 27.7665 33.3574 28.4796 33.3574C29.1927 33.3574 29.869 33.078 30.3763 32.5708L32.0671 30.8799C33.111 29.836 33.111 28.1305 32.0671 27.0866L31.2217 26.2412C31.8245 25.1826 32.295 24.0578 32.6184 22.8816H33.8167C35.2944 22.8816 36.5 21.6759 36.5 20.1983V17.8091C36.5 16.3314 35.2944 15.1258 33.8167 15.1258H32.6184C32.295 13.9496 31.8318 12.8248 31.2217 11.7662L32.0671 10.9208C33.111 9.87687 33.111 8.17134 32.0671 7.12744L30.3763 5.4366C29.869 4.92936 29.1927 4.65 28.4796 4.65C27.7665 4.65 27.0902 4.92936 26.5829 5.4366L25.7448 6.27467ZM28.3767 7.2083C28.4428 7.14214 28.5384 7.14214 28.6046 7.2083L30.2954 8.89913C30.3615 8.96529 30.3615 9.06086 30.2954 9.12703L28.7442 10.6782C28.3178 11.1046 28.2517 11.7735 28.5899 12.2734C29.4794 13.5967 30.0822 15.067 30.391 16.6255C30.5086 17.2136 31.0232 17.64 31.626 17.64H33.8241C33.9123 17.64 33.9858 17.7135 33.9858 17.8017V20.1909C33.9858 20.2792 33.9123 20.3527 33.8241 20.3527H31.626C31.0232 20.3527 30.5086 20.7791 30.391 21.3672C30.0822 22.933 29.472 24.396 28.5899 25.7192C28.2517 26.2191 28.3178 26.8881 28.7442 27.3145L30.2954 28.8656C30.3615 28.9318 30.3615 29.0274 30.2954 29.0935L28.6046 30.7844C28.5457 30.8505 28.4428 30.8432 28.3767 30.7844L26.8255 29.2332C26.3991 28.8068 25.7301 28.7407 25.2302 29.0788C23.8996 29.9683 22.4367 30.5712 20.8782 30.8799C20.2901 30.9975 19.8637 31.5121 19.8637 32.115V34.313C19.8637 34.4013 19.7902 34.4748 19.702 34.4748H17.3127C17.2245 34.4748 17.151 34.4013 17.151 34.313V32.115C17.151 31.5121 16.7246 30.9975 16.1365 30.8799C14.578 30.5712 13.1077 29.961 11.7845 29.0788C11.5713 28.9391 11.3287 28.8656 11.0861 28.8656C10.7626 28.8656 10.4391 28.9906 10.1965 29.2332L8.64539 30.7844C8.57923 30.8505 8.48366 30.8505 8.4175 30.7844L6.72667 29.0935C6.66051 29.0274 6.66051 28.9318 6.72667 28.8656L8.27782 27.3145C8.70421 26.8881 8.77037 26.2191 8.4322 25.7192C7.54268 24.3886 6.93986 22.9257 6.6311 21.3672C6.51348 20.7791 5.99888 20.3527 5.39606 20.3527H3.18328C3.09506 20.3527 3.02154 20.2792 3.02154 20.1909V17.8017C3.02154 17.7135 3.09506 17.64 3.18328 17.64H5.38136C5.98417 17.64 6.49877 17.2136 6.6164 16.6255C6.92516 15.067 7.53533 13.5967 8.4175 12.2734C8.74831 11.7735 8.6895 11.1046 8.26312 10.6782L6.71197 9.12703C6.68256 9.09762 6.66786 9.06086 6.66786 9.0094C6.66786 8.96529 6.68256 8.92854 6.71197 8.89913L8.4028 7.2083C8.46896 7.14214 8.56453 7.14214 8.63069 7.2083L10.1818 8.75945C10.6082 9.18584 11.2772 9.252 11.7771 8.91383C13.1077 8.02431 14.5707 7.42149 16.1292 7.11273C16.7173 6.99511 17.1437 6.48051 17.1437 5.87769V3.67961C17.1437 3.59139 17.2172 3.51788 17.3054 3.51788H19.6946C19.7828 3.51788 19.8563 3.59139 19.8563 3.67961V5.87769C19.8563 6.48051 20.2827 6.99511 20.8708 7.11273C22.4293 7.42149 23.8996 8.03166 25.2229 8.91383C25.7228 9.24465 26.3918 9.18584 26.8182 8.75945L28.3767 7.2083Z" fill="#558CEC"/>
<path d="M18.5037 11.6779C14.4677 11.6779 11.1816 14.964 11.1816 19C11.1816 23.0359 14.4677 26.322 18.5037 26.322C22.5396 26.322 25.8257 23.0359 25.8257 19C25.8257 14.964 22.5396 11.6779 18.5037 11.6779ZM18.5037 23.8005C15.8572 23.8005 13.7032 21.6465 13.7032 19C13.7032 16.3535 15.8572 14.1995 18.5037 14.1995C21.1502 14.1995 23.3042 16.3535 23.3042 19C23.3042 21.6465 21.1502 23.8005 18.5037 23.8005Z" fill="#6FCF97"/>
</svg>
