<svg width="64" height="51" viewBox="0 0 64 51" fill="none" xmlns="http://www.w3.org/2000/svg">
<path d="M53.3236 16.6472C50.3656 4.86371 38.4156 -2.29076 26.6321 0.66717C17.4236 2.97879 10.7372 10.9375 10.0483 20.4066C3.50988 21.4849 -0.916508 27.6593 0.161749 34.1977C1.12027 40.0105 6.15697 44.2674 12.0481 44.244H22.047V40.2445H12.0481C7.63031 40.2445 4.04895 36.6631 4.04895 32.2453C4.04895 27.8276 7.63031 24.2462 12.0481 24.2462C13.1526 24.2462 14.0479 23.3509 14.0479 22.2464C14.0379 12.3064 22.0878 4.24028 32.0279 4.2304C40.6324 4.22178 48.0395 10.3049 49.7039 18.7468C49.8683 19.5897 50.5524 20.2336 51.4038 20.3466C56.8709 21.1252 60.6716 26.1882 59.8932 31.6553C59.1942 36.5645 55.0026 40.2197 50.0439 40.2445H42.0448V44.244H50.0439C57.7751 44.2206 64.0234 37.9343 63.9999 30.2032C63.9804 23.7676 59.5754 18.1744 53.3236 16.6472Z" fill="#BDBDBD"/>
<path d="M30.6261 24.8262L22.627 32.8253L25.4466 35.645L30.0461 31.0655V50.2434H34.0457V31.0655L38.6252 35.645L41.4449 32.8253L33.4458 24.8262C32.6657 24.0508 31.4061 24.0508 30.6261 24.8262Z" fill="#BDBDBD"/>
</svg>
