<svg width="37" height="36" viewBox="0 0 37 36" fill="none" xmlns="http://www.w3.org/2000/svg">
<path d="M17.7131 17.9926C21.4941 17.9926 24.5702 14.956 24.5702 11.2236C24.5702 7.49112 21.4941 4.45453 17.7131 4.45453C13.9321 4.45453 10.856 7.49112 10.856 11.2236C10.856 14.956 13.9321 17.9926 17.7131 17.9926ZM17.7131 7.16214C19.9817 7.16214 21.8274 8.98409 21.8274 11.2236C21.8274 13.463 19.9817 15.285 17.7131 15.285C15.4445 15.285 13.5988 13.463 13.5988 11.2236C13.5988 8.98409 15.4445 7.16214 17.7131 7.16214Z" fill="#6FCF97"/>
<path d="M17.7132 19.7525C11.4745 19.7525 6.39893 24.7628 6.39893 30.9214V32.2752H29.0275V30.9214C29.0275 24.7628 23.9519 19.7525 17.7132 19.7525ZM9.25141 29.5676C9.90978 25.5434 13.4536 22.4601 17.7132 22.4601C21.9728 22.4601 25.5166 25.5434 26.175 29.5676H9.25141Z" fill="#558CEC"/>
</svg>
