<svg width="37" height="36" viewBox="0 0 37 36" fill="none" xmlns="http://www.w3.org/2000/svg">
<g clip-path="url(#clip0_719_3401)">
<path d="M23.8363 23.3145H5.91113C5.26044 23.3145 4.73291 23.842 4.73291 24.4927C4.73291 25.1434 5.26044 25.6709 5.91113 25.6709H23.8363C24.487 25.6709 25.0145 25.1434 25.0145 24.4927C25.0145 23.842 24.487 23.3145 23.8363 23.3145Z" fill="#6FCF97"/>
<path d="M34.9322 9.09171L34.9323 9.09168C35.1393 8.94647 35.4101 8.92856 35.6345 9.04529C35.859 9.16209 35.9998 9.39405 36 9.64698C36 9.64705 36 9.64711 36 9.64717V26.3529C36 26.6059 35.8592 26.8378 35.6347 26.9546L35.8654 27.3982L35.6347 26.9546C35.4099 27.0715 35.1392 27.0532 34.9323 26.9082C34.9323 26.9082 34.9323 26.9082 34.9323 26.9082L29.5345 23.1229L28.7474 22.571V23.5323V28.2291C28.7474 29.3763 27.8132 30.3105 26.6659 30.3105H3.08149C1.93417 30.3105 1 29.3763 1 28.2291V7.77102C1 6.6237 1.93418 5.68954 3.08146 5.68961H3.08149H26.6658C27.8132 5.68961 28.7473 6.62379 28.7473 7.77102V12.4676V13.4289L29.5344 12.8769L34.9322 9.09171ZM27.391 28.2293V28.229V7.77102C27.391 7.37073 27.066 7.04605 26.6659 7.04605H3.08149C2.68135 7.04605 2.35645 7.37073 2.35645 7.77102V28.229C2.35645 28.6293 2.68135 28.954 3.08149 28.954H26.6658C27.066 28.954 27.3907 28.6293 27.391 28.2293ZM33.8563 24.4969L34.6434 25.0489V24.0875V11.9123V10.951L33.8563 11.5029L28.9602 14.9364L28.7473 15.0857V15.3457V20.6541V20.9142L28.9602 21.0635L33.8563 24.4969Z" fill="white" stroke="#558CEC"/>
<path d="M8.32507 16.1074C10.1279 16.1074 11.5946 14.6407 11.5946 12.8377C11.5946 11.0349 10.1279 9.56818 8.32507 9.56818C6.52215 9.56818 5.05542 11.0349 5.05542 12.8377C5.05542 14.6407 6.52215 16.1074 8.32507 16.1074ZM8.32507 11.9246C8.82856 11.9246 9.23819 12.3343 9.23819 12.8377C9.23819 13.3412 8.82856 13.7509 8.32507 13.7509C7.8215 13.7509 7.41187 13.3412 7.41187 12.8377C7.41187 12.3343 7.8215 11.9246 8.32507 11.9246Z" fill="#6FCF97"/>
</g>
<defs>
<clipPath id="clip0_719_3401">
<rect width="36" height="36" fill="white" transform="translate(0.5)"/>
</clipPath>
</defs>
</svg>
